<svg width="512" height="512" viewBox="0 0 512 512" version="1.1" xmlns="http://www.w3.org/2000/svg">
  <title>Daveden Builder Enhancements</title>
  <!-- The fancy D from the Daveden logo, doubled for the DD echo, with BE
       (Geist Bold, converted to outlines) set into the front D's counter.
       Brand blue: #0C3FC8; BE accent: #E0A94A. -->
  <defs>
    <path id="dbe-d" d="M165.37,88.12L167.44,81L247.89,81C281.85,81 307.017,85.043 323.39,93.13C339.763,101.217 352.863,113.883 362.69,131.13C372.425,148.051 377.515,167.249 377.44,186.77C377.461,203.624 374.575,220.356 368.91,236.23C363.23,252.23 356.853,265.03 349.78,274.63C342.707,284.23 331.797,294.85 317.05,306.49C302.744,317.897 286.501,326.636 269.1,332.29C251.887,337.837 230.45,340.61 204.79,340.61L95.16,340.61L97.47,333.48C107.3,333.32 117.03,332.48 120.47,330.87C125.377,328.65 128.987,325.717 131.3,322.07C134.987,316.683 139.06,305.903 143.52,289.73L188,132.82C191.333,120.453 193,110.703 193,103.57C193,98.663 191.387,94.86 188.16,92.16C184.933,89.46 178.633,88.127 169.26,88.16L165.37,88.12ZM231.06,95.49L176.66,289.75C172.513,304.337 170.44,313.293 170.44,316.62C170.474,318.759 171.173,320.836 172.44,322.56C173.656,324.407 175.495,325.759 177.62,326.37C180.847,327.637 186.073,328.27 193.3,328.27C211.511,328.405 229.668,326.289 247.36,321.97C264.027,317.77 277.663,311.627 288.27,303.54C303.33,291.647 315.393,275.313 324.46,254.54C333.527,233.767 338.06,210.067 338.06,183.44C338.06,153.48 331.147,131.21 317.32,116.63C303.493,102.05 283.27,94.763 256.65,94.77C250.043,94.77 241.513,95.01 231.06,95.49Z"/>
  </defs>
  <use href="#dbe-d" transform="translate(37,52) scale(1.3) translate(-95,-81)" fill="#0C3FC8" opacity="0.35"/>
  <use href="#dbe-d" transform="translate(107,122) scale(1.3) translate(-95,-81)" fill="#0C3FC8"/>
  <g transform="translate(253.85,318)" fill="#E0A94A">
    <path d="M6.95606884765625 0.0V-66.74H32.937544921875Q45.34552197265625 -66.74 51.91609558105469 -62.387801147460934Q58.486669189453124 -58.03560229492187 58.486669189453124 -48.61680688476562Q58.486669189453124 -44.462 56.80406115722656 -41.3975908203125Q55.121453125 -38.333181640625 51.8690439453125 -36.55657934570313Q48.616634765625 -34.77997705078125 43.991827880859375 -34.4415908203125L43.9542255859375 -34.5544091796875Q52.39543017578125 -34.046829833984376 56.85104968261719 -29.769818359375Q61.306669189453125 -25.492806884765624 61.306669189453125 -18.386397705078124Q61.306669189453125 -9.09920458984375 54.76429443359375 -4.549602294921875Q48.22191967773438 0.0 36.13356787109375 0.0ZM21.24381640625 -11.61824853515625H35.40039770507813Q40.57046655273437 -11.61824853515625 43.71948950195312 -13.733277221679687Q46.868512451171874 -15.848305908203125 46.868512451171874 -20.097147216796873Q46.868512451171874 -24.345988525390624 43.74768835449218 -26.545619506835937Q40.6268642578125 -28.74525048828125 35.40039770507813 -28.74525048828125H21.24381640625ZM21.24381640625 -39.12274951171875H32.48636328125Q37.7880458984375 -39.12274951171875 40.91827917480469 -41.16257934570312Q44.048512451171874 -43.2024091796875 44.048512451171874 -47.112852783203124Q44.048512451171874 -51.248898681640625 41.00288146972656 -53.18532507324218Q37.95725048828125 -55.12175146484375 32.48636328125 -55.12175146484375H21.24381640625Z M76.79806884765625 0.0V-66.74H123.23388525390625V-54.72696752929688H91.08581640625V-39.40471508789062H122.10588525390625V-27.523284912109375H91.08581640625V-12.013032470703125H123.98588525390625V0.0Z"/>
  </g>
</svg>
